<svg xmlns="http://www.w3.org/2000/svg" version="1.1" xmlns:xlink="http://www.w3.org/1999/xlink" width="200" height="200"><svg xmlns="http://www.w3.org/2000/svg" version="1.1" xmlns:xlink="http://www.w3.org/1999/xlink" viewBox="0 0 200 200"><rect width="200" height="200" fill="url('#gradient')"></rect><defs><linearGradient id="SvgjsLinearGradient1001" gradientTransform="rotate(360 0.5 0.5)"><stop offset="0%" stop-color="#ffffff"></stop><stop offset="100%" stop-color="#ffffff"></stop></linearGradient></defs><g><g fill="#5b74ff" transform="matrix(5.878300803673938,0,0,5.878300803673938,-6.310004812841711,141.47207772115888)" stroke="#a1a5f2" stroke-width="0"><path d="M1.07-14.22L5.58-14.22L8.75-4.33L11.91-14.22L16.43-14.22L16.43 0L12.99 0L12.99-3.32L13.32-10.12L9.88 0L7.62 0L4.17-10.13L4.50-3.32L4.50 0L1.07 0L1.07-14.22ZM26.46 0L23.44-5.29L22.03-3.75L22.03 0L18.60 0L18.60-14.22L22.03-14.22L22.03-7.95L23.22-9.76L26.29-14.22L30.53-14.22L25.72-7.93L30.53 0L26.46 0ZM33.28-3.19L33.28-3.19Q34.06-3.19 34.58-2.73Q35.10-2.27 35.10-1.54Q35.10-0.82 34.58-0.36Q34.06 0.11 33.28 0.11L33.28 0.11Q32.49 0.11 31.98-0.36Q31.46-0.83 31.46-1.54Q31.46-2.26 31.98-2.72Q32.49-3.19 33.28-3.19Z"></path></g></g></svg><style>@media (prefers-color-scheme: light) { :root { filter: none; } }
@media (prefers-color-scheme: dark) { :root { filter: none; } }
</style></svg>